<svg width="7425" height="1086" viewBox="0 0 7425 1086" fill="none" xmlns="http://www.w3.org/2000/svg">
<path d="M1683.26 257.449C1735.04 257.449 1779.2 266.079 1815.75 283.338C1852.81 300.09 1880.98 324.203 1900.27 355.677C1919.56 386.643 1929.21 423.192 1929.21 465.326C1929.21 507.46 1919.56 544.264 1900.27 575.738C1880.98 606.703 1852.81 630.816 1815.75 648.076C1779.2 664.828 1735.04 673.204 1683.26 673.204H1441.87V520.151H1670.31C1689.6 520.151 1704.58 515.329 1715.24 505.684C1725.9 496.038 1731.23 482.586 1731.23 465.326C1731.23 447.559 1725.9 434.107 1715.24 424.969C1704.58 415.324 1689.6 410.502 1670.31 410.502H1458.63L1546.96 322.173V828.541H1350.5V257.449H1683.26ZM2356.51 828.541L2334.43 673.965L2356.51 610.003L2334.43 546.802L2356.51 390.704H2557.54L2527.08 609.242L2557.54 828.541H2356.51ZM2396.87 610.003C2391.8 656.706 2379.1 697.571 2358.8 732.598C2339 767.117 2312.86 794.022 2280.37 813.312C2248.39 832.602 2211.58 842.247 2169.96 842.247C2127.32 842.247 2089.75 832.602 2057.26 813.312C2025.28 794.022 2000.15 766.863 1981.88 731.836C1964.11 696.809 1955.23 656.198 1955.23 610.003C1955.23 563.3 1964.11 522.436 1981.88 487.409C2000.15 452.382 2025.28 425.223 2057.26 405.933C2089.75 386.643 2127.32 376.997 2169.96 376.997C2211.58 376.997 2248.39 386.643 2280.37 405.933C2312.86 424.715 2339.25 451.62 2359.56 486.647C2379.87 521.167 2392.3 562.285 2396.87 610.003ZM2150.16 610.003C2150.16 626.755 2153.46 641.73 2160.06 654.929C2167.17 667.62 2176.81 677.773 2188.99 685.387C2201.69 693.002 2216.15 696.809 2232.4 696.809C2249.15 696.809 2265.39 693.002 2281.13 685.387C2296.87 677.773 2310.57 667.62 2322.25 654.929C2334.43 641.73 2342.81 626.755 2347.38 610.003C2342.81 593.251 2334.43 578.276 2322.25 565.077C2310.57 551.879 2296.87 541.472 2281.13 533.857C2265.39 526.243 2249.15 522.436 2232.4 522.436C2216.15 522.436 2201.69 526.243 2188.99 533.857C2176.81 541.472 2167.17 551.879 2160.06 565.077C2153.46 578.276 2150.16 593.251 2150.16 610.003ZM2598.32 390.704H2796.3L2822.19 545.279V828.541H2628.78V542.995L2598.32 390.704ZM3015.6 381.566V545.279C2998.34 542.233 2982.86 540.203 2969.15 539.188C2955.45 537.665 2943.26 536.903 2932.6 536.903C2913.31 536.903 2895.29 540.457 2878.54 547.564C2861.79 554.163 2848.08 566.346 2837.42 584.114C2827.27 601.881 2822.19 627.263 2822.19 660.259L2787.93 617.618C2793 586.144 2799.35 556.193 2806.96 527.766C2815.09 498.83 2825.75 473.195 2838.94 450.859C2852.14 428.015 2868.9 409.994 2889.2 396.795C2909.51 383.597 2934.89 376.997 2965.35 376.997C2972.96 376.997 2980.83 377.505 2988.95 378.52C2997.07 379.028 3005.96 380.043 3015.6 381.566ZM3035.3 531.573V448.574L3121.34 405.171L3205.87 271.155H3314.75V390.704H3486.08V531.573H3314.75V621.425C3314.75 649.345 3320.08 669.143 3330.74 680.819C3341.4 691.987 3363.23 697.571 3396.23 697.571C3416.53 697.571 3434.56 696.301 3450.29 693.763C3466.54 690.717 3481 687.164 3493.7 683.103V823.211C3476.44 828.287 3455.12 832.602 3429.73 836.156C3404.86 840.217 3378.72 842.247 3351.3 842.247C3299.52 842.247 3256.63 834.633 3222.62 819.404C3188.61 803.667 3163.22 781.077 3146.47 751.634C3129.72 722.191 3121.34 687.164 3121.34 646.553V531.573H3035.3ZM3710.75 967.888C3674.2 967.888 3641.96 963.319 3614.04 954.181C3586.63 945.551 3559.22 931.084 3531.8 910.778V781.331C3558.71 798.59 3583.58 811.028 3606.43 818.642C3629.78 825.749 3654.91 829.302 3681.81 829.302C3703.13 829.302 3721.66 824.988 3737.4 816.358C3753.64 807.22 3766.84 789.961 3776.99 764.579L3925.48 390.704H4131.07L3931.57 822.449C3914.82 858.999 3894.26 887.935 3869.89 909.255C3846.03 930.576 3820.4 945.551 3792.98 954.181C3765.57 963.319 3738.16 967.888 3710.75 967.888ZM3686.38 769.909L3510.48 390.704H3723.69L3870.65 769.909H3686.38ZM5053.47 257.449V828.541H4866.91V331.31L4902.7 335.879L4710.81 828.541H4516.64L4324.75 338.163L4360.54 332.833V828.541H4173.99V257.449H4477.81L4648.37 722.699H4580.6L4749.65 257.449H5053.47ZM5514.62 828.541L5492.54 673.965L5514.62 610.003L5492.54 546.802L5514.62 390.704H5715.65L5685.19 609.242L5715.65 828.541H5514.62ZM5554.98 610.003C5549.91 656.706 5537.21 697.571 5516.91 732.598C5497.11 767.117 5470.97 794.022 5438.48 813.312C5406.5 832.602 5369.69 842.247 5328.07 842.247C5285.43 842.247 5247.86 832.602 5215.37 813.312C5183.39 794.022 5158.26 766.863 5139.99 731.836C5122.22 696.809 5113.34 656.198 5113.34 610.003C5113.34 563.3 5122.22 522.436 5139.99 487.409C5158.26 452.382 5183.39 425.223 5215.37 405.933C5247.86 386.643 5285.43 376.997 5328.07 376.997C5369.69 376.997 5406.5 386.643 5438.48 405.933C5470.97 424.715 5497.36 451.62 5517.67 486.647C5537.98 521.167 5550.41 562.285 5554.98 610.003ZM5308.27 610.003C5308.27 626.755 5311.57 641.73 5318.17 654.929C5325.28 667.62 5334.92 677.773 5347.1 685.387C5359.8 693.002 5374.26 696.809 5390.51 696.809C5407.26 696.809 5423.5 693.002 5439.24 685.387C5454.98 677.773 5468.68 667.62 5480.36 654.929C5492.54 641.73 5500.92 626.755 5505.49 610.003C5500.92 593.251 5492.54 578.276 5480.36 565.077C5468.68 551.879 5454.98 541.472 5439.24 533.857C5423.5 526.243 5407.26 522.436 5390.51 522.436C5374.26 522.436 5359.8 526.243 5347.1 533.857C5334.92 541.472 5325.28 551.879 5318.17 565.077C5311.57 578.276 5308.27 593.251 5308.27 610.003ZM5745.01 531.573V448.574L5831.06 405.171L5915.58 271.155H6024.47V390.704H6195.79V531.573H6024.47V621.425C6024.47 649.345 6029.8 669.143 6040.46 680.819C6051.12 691.987 6072.95 697.571 6105.94 697.571C6126.25 697.571 6144.27 696.301 6160.01 693.763C6176.25 690.717 6190.72 687.164 6203.41 683.103V823.211C6186.15 828.287 6164.83 832.602 6139.45 836.156C6114.57 840.217 6088.43 842.247 6061.02 842.247C6009.24 842.247 5966.34 834.633 5932.33 819.404C5898.32 803.667 5872.94 781.077 5856.19 751.634C5839.43 722.191 5831.06 687.164 5831.06 646.553V531.573H5745.01ZM6794.42 635.893C6790.87 677.011 6776.4 713.053 6751.02 744.019C6725.64 774.985 6692.39 799.098 6651.27 816.358C6610.66 833.617 6564.72 842.247 6513.45 842.247C6457.61 842.247 6408.37 832.602 6365.72 813.312C6323.08 793.514 6289.83 766.102 6265.97 731.075C6242.11 696.048 6230.19 655.69 6230.19 610.003C6230.19 563.808 6242.11 523.451 6265.97 488.932C6289.83 453.905 6323.08 426.492 6365.72 406.694C6408.37 386.896 6457.61 376.997 6513.45 376.997C6564.72 376.997 6610.66 385.627 6651.27 402.887C6692.39 420.147 6725.64 444.259 6751.02 475.225C6776.4 505.684 6790.87 541.726 6794.42 583.352H6603.3C6598.73 561.524 6588.32 545.279 6572.08 534.619C6556.34 523.451 6536.8 517.867 6513.45 517.867C6495.68 517.867 6479.94 521.42 6466.24 528.527C6453.04 535.127 6442.89 545.279 6435.78 558.986C6428.67 572.692 6425.12 589.698 6425.12 610.003C6425.12 630.309 6428.67 647.314 6435.78 661.021C6442.89 674.219 6453.04 684.372 6466.24 691.479C6479.94 698.078 6495.68 701.378 6513.45 701.378C6536.8 701.378 6556.34 695.54 6572.08 683.864C6588.32 671.681 6598.73 655.69 6603.3 635.893H6794.42ZM6847.05 242.22H7040.46V828.541H6847.05V242.22ZM7191.99 376.997C7234.63 376.997 7270.93 385.627 7300.88 402.887C7330.83 419.639 7353.67 443.498 7369.41 474.464C7385.65 504.922 7393.77 540.711 7393.77 581.829V828.541H7200.36V609.242C7200.36 584.875 7193.51 566.092 7179.8 552.894C7166.61 539.695 7147.82 533.096 7123.46 533.096C7106.2 533.096 7091.22 536.649 7078.53 543.756C7066.35 550.356 7056.96 560.255 7050.36 573.453C7043.76 586.144 7040.46 601.627 7040.46 619.902L6983.35 590.967C6990.46 543.249 7004.16 503.653 7024.47 472.179C7044.77 440.198 7069.39 416.339 7098.33 400.603C7127.26 384.866 7158.48 376.997 7191.99 376.997Z" fill="white"/>
<rect width="1086.59" height="1085.23" rx="271.478" fill="#E73070"/>
<path fill-rule="evenodd" clip-rule="evenodd" d="M679.545 241.889C628.299 241.889 582.013 263.143 556.036 290.773L545.409 303.761L541.866 299.747C509.277 262.907 462.99 241.889 411.272 241.889C295.556 241.889 202.511 345.089 202.511 456.554C202.511 514.176 224.709 559.046 270.524 604.388L464.88 798.508C490.148 824.248 516.598 836.292 544.936 836.292C573.511 836.292 600.433 822.595 627.355 795.674L822.183 600.609C867.053 555.74 887.834 512.759 887.834 456.554C887.834 338.476 793.844 241.889 679.545 241.889ZM540.049 640.696L479.016 531.242C468.996 513.888 466.965 495.007 471.977 476.302C483.468 433.418 527.899 410.851 565.142 420.585C606.886 431.771 630.521 474.043 619.336 515.787C613.896 536.089 600.672 552.593 582.344 562.596L530.238 591.908L566.047 656.268L614.287 628.61C653.867 604.987 679.793 575.75 690.733 534.918C712.065 455.308 663.801 375.387 582.594 353.627C501.844 331.99 420.476 381.089 400.123 457.049C389.426 496.968 395.859 536.832 417.05 574.538C432.436 602.522 454.211 636.443 475.926 676.075L540.049 640.696ZM533.085 552.086C543.601 522.876 568.23 509.428 597.416 514.559C600.96 515.02 602.183 510.457 598.822 509.312C570.419 498.523 557.031 473.666 561.812 444.875C562.212 441.559 557.649 440.337 556.566 443.469C546.005 471.934 521.481 485.9 492.523 480.83C489.041 480.141 487.757 484.931 491.118 486.076C519.293 496.804 533.943 521.511 528.295 550.803C527.728 553.829 532.062 554.991 533.085 552.086Z" fill="white"/>
</svg>
